<mxfile host="app.diagrams.net" modified="2023-03-25T16:20:16.260Z" agent="Mozilla/5.0 (Macintosh; Intel Mac OS X 10_15_7) AppleWebKit/537.36 (KHTML, like Gecko) Chrome/111.0.0.0 Safari/537.36 Edg/111.0.1661.51" etag="tQIrmATZtYIRoOHcfoFK" version="21.1.1" type="github">
  <diagram name="第 1 页" id="2Dv64XPZ4sO35TC0VDzX">
    <mxGraphModel dx="510" dy="1053" grid="1" gridSize="10" guides="1" tooltips="1" connect="1" arrows="1" fold="1" page="1" pageScale="1" pageWidth="827" pageHeight="1169" math="0" shadow="0">
      <root>
        <mxCell id="0" />
        <mxCell id="1" parent="0" />
        <mxCell id="pvFu4Uic2yDWqxtZS8rq-4" value="" style="edgeStyle=orthogonalEdgeStyle;rounded=0;orthogonalLoop=1;jettySize=auto;html=1;entryX=0.5;entryY=1;entryDx=0;entryDy=0;" edge="1" parent="1" source="pvFu4Uic2yDWqxtZS8rq-1" target="pvFu4Uic2yDWqxtZS8rq-5">
          <mxGeometry relative="1" as="geometry">
            <mxPoint x="360" y="460" as="targetPoint" />
          </mxGeometry>
        </mxCell>
        <mxCell id="pvFu4Uic2yDWqxtZS8rq-25" style="edgeStyle=orthogonalEdgeStyle;rounded=0;orthogonalLoop=1;jettySize=auto;html=1;" edge="1" parent="1" source="pvFu4Uic2yDWqxtZS8rq-1" target="pvFu4Uic2yDWqxtZS8rq-24">
          <mxGeometry relative="1" as="geometry" />
        </mxCell>
        <mxCell id="pvFu4Uic2yDWqxtZS8rq-33" style="edgeStyle=orthogonalEdgeStyle;rounded=0;orthogonalLoop=1;jettySize=auto;html=1;" edge="1" parent="1" source="pvFu4Uic2yDWqxtZS8rq-1" target="pvFu4Uic2yDWqxtZS8rq-32">
          <mxGeometry relative="1" as="geometry" />
        </mxCell>
        <mxCell id="pvFu4Uic2yDWqxtZS8rq-44" style="edgeStyle=orthogonalEdgeStyle;rounded=0;orthogonalLoop=1;jettySize=auto;html=1;entryX=0.5;entryY=0;entryDx=0;entryDy=0;" edge="1" parent="1" source="pvFu4Uic2yDWqxtZS8rq-1" target="pvFu4Uic2yDWqxtZS8rq-42">
          <mxGeometry relative="1" as="geometry" />
        </mxCell>
        <mxCell id="pvFu4Uic2yDWqxtZS8rq-54" style="edgeStyle=orthogonalEdgeStyle;rounded=0;orthogonalLoop=1;jettySize=auto;html=1;" edge="1" parent="1" source="pvFu4Uic2yDWqxtZS8rq-1" target="pvFu4Uic2yDWqxtZS8rq-53">
          <mxGeometry relative="1" as="geometry" />
        </mxCell>
        <mxCell id="pvFu4Uic2yDWqxtZS8rq-68" style="edgeStyle=orthogonalEdgeStyle;rounded=0;orthogonalLoop=1;jettySize=auto;html=1;entryX=0.5;entryY=0;entryDx=0;entryDy=0;" edge="1" parent="1" source="pvFu4Uic2yDWqxtZS8rq-1" target="pvFu4Uic2yDWqxtZS8rq-67">
          <mxGeometry relative="1" as="geometry" />
        </mxCell>
        <mxCell id="pvFu4Uic2yDWqxtZS8rq-1" value="系统管理员" style="shape=umlActor;verticalLabelPosition=bottom;verticalAlign=top;html=1;outlineConnect=0;" vertex="1" parent="1">
          <mxGeometry x="450" y="470" width="30" height="60" as="geometry" />
        </mxCell>
        <mxCell id="pvFu4Uic2yDWqxtZS8rq-7" value="" style="edgeStyle=orthogonalEdgeStyle;rounded=0;orthogonalLoop=1;jettySize=auto;html=1;" edge="1" parent="1" source="pvFu4Uic2yDWqxtZS8rq-5" target="pvFu4Uic2yDWqxtZS8rq-6">
          <mxGeometry relative="1" as="geometry" />
        </mxCell>
        <mxCell id="pvFu4Uic2yDWqxtZS8rq-10" value="" style="edgeStyle=orthogonalEdgeStyle;rounded=0;orthogonalLoop=1;jettySize=auto;html=1;" edge="1" parent="1" source="pvFu4Uic2yDWqxtZS8rq-5" target="pvFu4Uic2yDWqxtZS8rq-6">
          <mxGeometry relative="1" as="geometry" />
        </mxCell>
        <mxCell id="pvFu4Uic2yDWqxtZS8rq-12" style="edgeStyle=orthogonalEdgeStyle;rounded=0;orthogonalLoop=1;jettySize=auto;html=1;exitX=0.5;exitY=0;exitDx=0;exitDy=0;entryX=0.5;entryY=1;entryDx=0;entryDy=0;" edge="1" parent="1" source="pvFu4Uic2yDWqxtZS8rq-5" target="pvFu4Uic2yDWqxtZS8rq-11">
          <mxGeometry relative="1" as="geometry" />
        </mxCell>
        <mxCell id="pvFu4Uic2yDWqxtZS8rq-14" style="edgeStyle=orthogonalEdgeStyle;rounded=0;orthogonalLoop=1;jettySize=auto;html=1;exitX=0.5;exitY=0;exitDx=0;exitDy=0;" edge="1" parent="1" source="pvFu4Uic2yDWqxtZS8rq-5" target="pvFu4Uic2yDWqxtZS8rq-13">
          <mxGeometry relative="1" as="geometry" />
        </mxCell>
        <mxCell id="pvFu4Uic2yDWqxtZS8rq-37" style="edgeStyle=orthogonalEdgeStyle;rounded=0;orthogonalLoop=1;jettySize=auto;html=1;" edge="1" parent="1" source="pvFu4Uic2yDWqxtZS8rq-5" target="pvFu4Uic2yDWqxtZS8rq-36">
          <mxGeometry relative="1" as="geometry" />
        </mxCell>
        <mxCell id="pvFu4Uic2yDWqxtZS8rq-5" value="用户管理" style="ellipse;whiteSpace=wrap;html=1;" vertex="1" parent="1">
          <mxGeometry x="285" y="400" width="90" height="50" as="geometry" />
        </mxCell>
        <mxCell id="pvFu4Uic2yDWqxtZS8rq-6" value="新增用户" style="ellipse;whiteSpace=wrap;html=1;" vertex="1" parent="1">
          <mxGeometry x="205" y="300" width="80" height="50" as="geometry" />
        </mxCell>
        <mxCell id="pvFu4Uic2yDWqxtZS8rq-11" value="修改用户" style="ellipse;whiteSpace=wrap;html=1;" vertex="1" parent="1">
          <mxGeometry x="260" y="230" width="80" height="50" as="geometry" />
        </mxCell>
        <mxCell id="pvFu4Uic2yDWqxtZS8rq-16" value="" style="edgeStyle=orthogonalEdgeStyle;rounded=0;orthogonalLoop=1;jettySize=auto;html=1;" edge="1" parent="1" source="pvFu4Uic2yDWqxtZS8rq-13" target="pvFu4Uic2yDWqxtZS8rq-15">
          <mxGeometry relative="1" as="geometry" />
        </mxCell>
        <mxCell id="pvFu4Uic2yDWqxtZS8rq-18" style="edgeStyle=orthogonalEdgeStyle;rounded=0;orthogonalLoop=1;jettySize=auto;html=1;exitX=0.5;exitY=0;exitDx=0;exitDy=0;entryX=0.5;entryY=1;entryDx=0;entryDy=0;" edge="1" parent="1" source="pvFu4Uic2yDWqxtZS8rq-13" target="pvFu4Uic2yDWqxtZS8rq-17">
          <mxGeometry relative="1" as="geometry" />
        </mxCell>
        <mxCell id="pvFu4Uic2yDWqxtZS8rq-20" style="edgeStyle=orthogonalEdgeStyle;rounded=0;orthogonalLoop=1;jettySize=auto;html=1;entryX=0.5;entryY=1;entryDx=0;entryDy=0;exitX=0.5;exitY=0;exitDx=0;exitDy=0;" edge="1" parent="1" source="pvFu4Uic2yDWqxtZS8rq-13" target="pvFu4Uic2yDWqxtZS8rq-19">
          <mxGeometry relative="1" as="geometry">
            <mxPoint x="420" y="295" as="sourcePoint" />
          </mxGeometry>
        </mxCell>
        <mxCell id="pvFu4Uic2yDWqxtZS8rq-22" style="edgeStyle=orthogonalEdgeStyle;rounded=0;orthogonalLoop=1;jettySize=auto;html=1;exitX=0.5;exitY=0;exitDx=0;exitDy=0;entryX=0.5;entryY=1;entryDx=0;entryDy=0;" edge="1" parent="1" source="pvFu4Uic2yDWqxtZS8rq-13" target="pvFu4Uic2yDWqxtZS8rq-21">
          <mxGeometry relative="1" as="geometry">
            <Array as="points">
              <mxPoint x="380" y="230" />
              <mxPoint x="530" y="230" />
            </Array>
          </mxGeometry>
        </mxCell>
        <mxCell id="pvFu4Uic2yDWqxtZS8rq-13" value="操作用户" style="ellipse;whiteSpace=wrap;html=1;" vertex="1" parent="1">
          <mxGeometry x="340" y="270" width="80" height="50" as="geometry" />
        </mxCell>
        <mxCell id="pvFu4Uic2yDWqxtZS8rq-15" value="重置" style="ellipse;whiteSpace=wrap;html=1;" vertex="1" parent="1">
          <mxGeometry x="300" y="140" width="80" height="50" as="geometry" />
        </mxCell>
        <mxCell id="pvFu4Uic2yDWqxtZS8rq-17" value="冻结" style="ellipse;whiteSpace=wrap;html=1;" vertex="1" parent="1">
          <mxGeometry x="370" y="60" width="80" height="50" as="geometry" />
        </mxCell>
        <mxCell id="pvFu4Uic2yDWqxtZS8rq-19" value="废弃" style="ellipse;whiteSpace=wrap;html=1;" vertex="1" parent="1">
          <mxGeometry x="425" y="140" width="80" height="50" as="geometry" />
        </mxCell>
        <mxCell id="pvFu4Uic2yDWqxtZS8rq-21" value="恢复" style="ellipse;whiteSpace=wrap;html=1;" vertex="1" parent="1">
          <mxGeometry x="490" y="70" width="80" height="50" as="geometry" />
        </mxCell>
        <mxCell id="pvFu4Uic2yDWqxtZS8rq-27" style="edgeStyle=orthogonalEdgeStyle;rounded=0;orthogonalLoop=1;jettySize=auto;html=1;exitX=0.497;exitY=-0.027;exitDx=0;exitDy=0;entryX=0.5;entryY=1;entryDx=0;entryDy=0;exitPerimeter=0;" edge="1" parent="1" source="pvFu4Uic2yDWqxtZS8rq-24" target="pvFu4Uic2yDWqxtZS8rq-26">
          <mxGeometry relative="1" as="geometry">
            <Array as="points">
              <mxPoint x="495" y="390" />
              <mxPoint x="495" y="390" />
            </Array>
          </mxGeometry>
        </mxCell>
        <mxCell id="pvFu4Uic2yDWqxtZS8rq-29" style="edgeStyle=orthogonalEdgeStyle;rounded=0;orthogonalLoop=1;jettySize=auto;html=1;exitX=0.5;exitY=0;exitDx=0;exitDy=0;entryX=0.5;entryY=1;entryDx=0;entryDy=0;" edge="1" parent="1" source="pvFu4Uic2yDWqxtZS8rq-24" target="pvFu4Uic2yDWqxtZS8rq-28">
          <mxGeometry relative="1" as="geometry">
            <mxPoint x="550" y="340" as="targetPoint" />
            <Array as="points">
              <mxPoint x="495" y="370" />
              <mxPoint x="550" y="370" />
            </Array>
          </mxGeometry>
        </mxCell>
        <mxCell id="pvFu4Uic2yDWqxtZS8rq-30" style="edgeStyle=orthogonalEdgeStyle;rounded=0;orthogonalLoop=1;jettySize=auto;html=1;exitX=0.5;exitY=0;exitDx=0;exitDy=0;entryX=0.5;entryY=1;entryDx=0;entryDy=0;" edge="1" parent="1" source="pvFu4Uic2yDWqxtZS8rq-24" target="pvFu4Uic2yDWqxtZS8rq-31">
          <mxGeometry relative="1" as="geometry">
            <mxPoint x="570" y="360" as="targetPoint" />
            <Array as="points">
              <mxPoint x="495" y="370" />
            </Array>
          </mxGeometry>
        </mxCell>
        <mxCell id="pvFu4Uic2yDWqxtZS8rq-39" style="edgeStyle=orthogonalEdgeStyle;rounded=0;orthogonalLoop=1;jettySize=auto;html=1;entryX=0.5;entryY=1;entryDx=0;entryDy=0;" edge="1" parent="1" source="pvFu4Uic2yDWqxtZS8rq-24" target="pvFu4Uic2yDWqxtZS8rq-38">
          <mxGeometry relative="1" as="geometry" />
        </mxCell>
        <mxCell id="pvFu4Uic2yDWqxtZS8rq-24" value="角色管理" style="ellipse;whiteSpace=wrap;html=1;" vertex="1" parent="1">
          <mxGeometry x="450" y="390" width="90" height="50" as="geometry" />
        </mxCell>
        <mxCell id="pvFu4Uic2yDWqxtZS8rq-26" value="新增角色" style="ellipse;whiteSpace=wrap;html=1;" vertex="1" parent="1">
          <mxGeometry x="455" y="240" width="80" height="50" as="geometry" />
        </mxCell>
        <mxCell id="pvFu4Uic2yDWqxtZS8rq-28" value="修改角色" style="ellipse;whiteSpace=wrap;html=1;" vertex="1" parent="1">
          <mxGeometry x="510" y="290" width="80" height="50" as="geometry" />
        </mxCell>
        <mxCell id="pvFu4Uic2yDWqxtZS8rq-31" value="删除角色" style="ellipse;whiteSpace=wrap;html=1;" vertex="1" parent="1">
          <mxGeometry x="590" y="300" width="80" height="50" as="geometry" />
        </mxCell>
        <mxCell id="pvFu4Uic2yDWqxtZS8rq-35" style="edgeStyle=orthogonalEdgeStyle;rounded=0;orthogonalLoop=1;jettySize=auto;html=1;entryX=0;entryY=0.5;entryDx=0;entryDy=0;" edge="1" parent="1" source="pvFu4Uic2yDWqxtZS8rq-32" target="pvFu4Uic2yDWqxtZS8rq-34">
          <mxGeometry relative="1" as="geometry" />
        </mxCell>
        <mxCell id="pvFu4Uic2yDWqxtZS8rq-32" value="操作历史" style="ellipse;whiteSpace=wrap;html=1;" vertex="1" parent="1">
          <mxGeometry x="620" y="420" width="90" height="50" as="geometry" />
        </mxCell>
        <mxCell id="pvFu4Uic2yDWqxtZS8rq-34" value="查询" style="ellipse;whiteSpace=wrap;html=1;" vertex="1" parent="1">
          <mxGeometry x="690" y="350" width="90" height="50" as="geometry" />
        </mxCell>
        <mxCell id="pvFu4Uic2yDWqxtZS8rq-36" value="分页查询用户列表" style="ellipse;whiteSpace=wrap;html=1;" vertex="1" parent="1">
          <mxGeometry x="120" y="330" width="80" height="50" as="geometry" />
        </mxCell>
        <mxCell id="pvFu4Uic2yDWqxtZS8rq-38" value="分页查询用户列表" style="ellipse;whiteSpace=wrap;html=1;" vertex="1" parent="1">
          <mxGeometry x="414" y="300" width="80" height="50" as="geometry" />
        </mxCell>
        <mxCell id="pvFu4Uic2yDWqxtZS8rq-46" value="" style="edgeStyle=orthogonalEdgeStyle;rounded=0;orthogonalLoop=1;jettySize=auto;html=1;" edge="1" parent="1" source="pvFu4Uic2yDWqxtZS8rq-42" target="pvFu4Uic2yDWqxtZS8rq-45">
          <mxGeometry relative="1" as="geometry" />
        </mxCell>
        <mxCell id="pvFu4Uic2yDWqxtZS8rq-49" style="edgeStyle=orthogonalEdgeStyle;rounded=0;orthogonalLoop=1;jettySize=auto;html=1;exitX=0.5;exitY=1;exitDx=0;exitDy=0;entryX=0.5;entryY=0;entryDx=0;entryDy=0;" edge="1" parent="1" source="pvFu4Uic2yDWqxtZS8rq-42" target="pvFu4Uic2yDWqxtZS8rq-48">
          <mxGeometry relative="1" as="geometry" />
        </mxCell>
        <mxCell id="pvFu4Uic2yDWqxtZS8rq-50" style="edgeStyle=orthogonalEdgeStyle;rounded=0;orthogonalLoop=1;jettySize=auto;html=1;exitX=0.5;exitY=1;exitDx=0;exitDy=0;entryX=0.5;entryY=0;entryDx=0;entryDy=0;" edge="1" parent="1" source="pvFu4Uic2yDWqxtZS8rq-42" target="pvFu4Uic2yDWqxtZS8rq-51">
          <mxGeometry relative="1" as="geometry">
            <mxPoint x="360" y="710" as="targetPoint" />
          </mxGeometry>
        </mxCell>
        <mxCell id="pvFu4Uic2yDWqxtZS8rq-64" style="edgeStyle=orthogonalEdgeStyle;rounded=0;orthogonalLoop=1;jettySize=auto;html=1;exitX=0;exitY=0.5;exitDx=0;exitDy=0;entryX=0.5;entryY=0;entryDx=0;entryDy=0;" edge="1" parent="1" source="pvFu4Uic2yDWqxtZS8rq-42" target="pvFu4Uic2yDWqxtZS8rq-63">
          <mxGeometry relative="1" as="geometry" />
        </mxCell>
        <mxCell id="pvFu4Uic2yDWqxtZS8rq-42" value="ECR管理" style="ellipse;whiteSpace=wrap;html=1;" vertex="1" parent="1">
          <mxGeometry x="210" y="585" width="80" height="50" as="geometry" />
        </mxCell>
        <mxCell id="pvFu4Uic2yDWqxtZS8rq-45" value="创建" style="ellipse;whiteSpace=wrap;html=1;" vertex="1" parent="1">
          <mxGeometry x="140" y="710" width="80" height="50" as="geometry" />
        </mxCell>
        <mxCell id="pvFu4Uic2yDWqxtZS8rq-48" value="修改" style="ellipse;whiteSpace=wrap;html=1;" vertex="1" parent="1">
          <mxGeometry x="240" y="710" width="80" height="50" as="geometry" />
        </mxCell>
        <mxCell id="pvFu4Uic2yDWqxtZS8rq-51" value="删除" style="ellipse;whiteSpace=wrap;html=1;" vertex="1" parent="1">
          <mxGeometry x="340" y="710" width="80" height="50" as="geometry" />
        </mxCell>
        <mxCell id="pvFu4Uic2yDWqxtZS8rq-57" value="" style="edgeStyle=orthogonalEdgeStyle;rounded=0;orthogonalLoop=1;jettySize=auto;html=1;" edge="1" parent="1" source="pvFu4Uic2yDWqxtZS8rq-53" target="pvFu4Uic2yDWqxtZS8rq-56">
          <mxGeometry relative="1" as="geometry" />
        </mxCell>
        <mxCell id="pvFu4Uic2yDWqxtZS8rq-60" style="edgeStyle=orthogonalEdgeStyle;rounded=0;orthogonalLoop=1;jettySize=auto;html=1;entryX=0.5;entryY=0;entryDx=0;entryDy=0;" edge="1" parent="1" source="pvFu4Uic2yDWqxtZS8rq-53" target="pvFu4Uic2yDWqxtZS8rq-59">
          <mxGeometry relative="1" as="geometry" />
        </mxCell>
        <mxCell id="pvFu4Uic2yDWqxtZS8rq-62" style="edgeStyle=orthogonalEdgeStyle;rounded=0;orthogonalLoop=1;jettySize=auto;html=1;exitX=1;exitY=1;exitDx=0;exitDy=0;entryX=0.5;entryY=0;entryDx=0;entryDy=0;" edge="1" parent="1" source="pvFu4Uic2yDWqxtZS8rq-53" target="pvFu4Uic2yDWqxtZS8rq-61">
          <mxGeometry relative="1" as="geometry" />
        </mxCell>
        <mxCell id="pvFu4Uic2yDWqxtZS8rq-66" style="edgeStyle=orthogonalEdgeStyle;rounded=0;orthogonalLoop=1;jettySize=auto;html=1;exitX=1;exitY=0.5;exitDx=0;exitDy=0;entryX=0;entryY=0.5;entryDx=0;entryDy=0;" edge="1" parent="1" source="pvFu4Uic2yDWqxtZS8rq-53" target="pvFu4Uic2yDWqxtZS8rq-65">
          <mxGeometry relative="1" as="geometry" />
        </mxCell>
        <mxCell id="pvFu4Uic2yDWqxtZS8rq-53" value="ECO管理" style="ellipse;whiteSpace=wrap;html=1;" vertex="1" parent="1">
          <mxGeometry x="550" y="585" width="80" height="50" as="geometry" />
        </mxCell>
        <mxCell id="pvFu4Uic2yDWqxtZS8rq-56" value="创建" style="ellipse;whiteSpace=wrap;html=1;" vertex="1" parent="1">
          <mxGeometry x="455" y="700" width="80" height="50" as="geometry" />
        </mxCell>
        <mxCell id="pvFu4Uic2yDWqxtZS8rq-59" value="修改" style="ellipse;whiteSpace=wrap;html=1;" vertex="1" parent="1">
          <mxGeometry x="550" y="700" width="80" height="50" as="geometry" />
        </mxCell>
        <mxCell id="pvFu4Uic2yDWqxtZS8rq-61" value="删除" style="ellipse;whiteSpace=wrap;html=1;" vertex="1" parent="1">
          <mxGeometry x="650" y="700" width="80" height="50" as="geometry" />
        </mxCell>
        <mxCell id="pvFu4Uic2yDWqxtZS8rq-63" value="分页查询" style="ellipse;whiteSpace=wrap;html=1;" vertex="1" parent="1">
          <mxGeometry x="70" y="660" width="80" height="50" as="geometry" />
        </mxCell>
        <mxCell id="pvFu4Uic2yDWqxtZS8rq-65" value="分页查询" style="ellipse;whiteSpace=wrap;html=1;" vertex="1" parent="1">
          <mxGeometry x="720" y="585" width="80" height="50" as="geometry" />
        </mxCell>
        <mxCell id="pvFu4Uic2yDWqxtZS8rq-67" value="查看统计数据" style="ellipse;whiteSpace=wrap;html=1;" vertex="1" parent="1">
          <mxGeometry x="370" y="585" width="80" height="50" as="geometry" />
        </mxCell>
      </root>
    </mxGraphModel>
  </diagram>
</mxfile>
